<svg width="350" height="350"><defs><linearGradient id="gradient" x1="0%" x2="50%" y1="100%" y2="50%" spreadMethod="pad"><stop offset="0%" stop-color="#5d5d5c" stop-opacity=".3"/><stop offset="100%" stop-color="#eae9e7" stop-opacity=".5"/></linearGradient></defs><path fill="url(#gradient)" d="m 10.15,10.15 a 35,35 0 0,0 -10.15,24.85 v 280 a 35,35 0 0,0 35,35 h 280 a35,35 0 0,0 24.85,-10.15 z"/><line x1="0" x2="350" y1="35" y2="35" stroke-dasharray="1 4" style="stroke:#aea79f;stroke-width:1"/><line x1="0" x2="350" y1="105" y2="105" stroke-dasharray="1 4" style="stroke:#aea79f;stroke-width:1"/><line x1="0" x2="350" y1="175" y2="175" stroke-dasharray="1 4" style="stroke:#aea79f;stroke-width:1"/><line x1="0" x2="350" y1="245" y2="245" stroke-dasharray="1 4" style="stroke:#aea79f;stroke-width:1"/><line x1="0" x2="350" y1="315" y2="315" stroke-dasharray="1 4" style="stroke:#aea79f;stroke-width:1"/><line x1="35" x2="35" y1="0" y2="350" stroke-dasharray="1 4" style="stroke:#aea79f;stroke-width:1"/><line x1="105" x2="105" y1="0" y2="350" stroke-dasharray="1 4" style="stroke:#aea79f;stroke-width:1"/><line x1="175" x2="175" y1="0" y2="350" stroke-dasharray="1 4" style="stroke:#aea79f;stroke-width:1"/><line x1="245" x2="245" y1="0" y2="350" stroke-dasharray="1 4" style="stroke:#aea79f;stroke-width:1"/><line x1="315" x2="315" y1="0" y2="350" stroke-dasharray="1 4" style="stroke:#aea79f;stroke-width:1"/></svg>